<svg width="676" height="47" viewBox="0 0 676 47" fill="none" xmlns="http://www.w3.org/2000/svg">
<path d="M16.3359 30.6172C16.3359 30.0703 16.2513 29.582 16.082 29.1523C15.9258 28.7096 15.6328 28.3125 15.2031 27.9609C14.7865 27.5964 14.194 27.2448 13.4258 26.9062C12.6706 26.5547 11.694 26.1901 10.4961 25.8125C9.16797 25.3958 7.93099 24.9271 6.78516 24.4062C5.63932 23.8854 4.63021 23.2799 3.75781 22.5898C2.89844 21.8997 2.22786 21.1055 1.74609 20.207C1.26432 19.2956 1.02344 18.2409 1.02344 17.043C1.02344 15.8711 1.27083 14.8034 1.76562 13.8398C2.27344 12.8763 2.98958 12.0495 3.91406 11.3594C4.83854 10.6562 5.92578 10.1159 7.17578 9.73828C8.4388 9.36068 9.83203 9.17188 11.3555 9.17188C13.4648 9.17188 15.2878 9.55599 16.8242 10.3242C18.3737 11.0924 19.5716 12.1341 20.418 13.4492C21.2643 14.7643 21.6875 16.2422 21.6875 17.8828H16.3359C16.3359 16.9974 16.1471 16.2161 15.7695 15.5391C15.4049 14.862 14.8451 14.3281 14.0898 13.9375C13.3477 13.5469 12.4102 13.3516 11.2773 13.3516C10.1836 13.3516 9.27214 13.5143 8.54297 13.8398C7.82682 14.1654 7.28646 14.6081 6.92188 15.168C6.57031 15.7279 6.39453 16.3529 6.39453 17.043C6.39453 17.5638 6.51823 18.0326 6.76562 18.4492C7.01302 18.8529 7.38411 19.237 7.87891 19.6016C8.3737 19.9531 8.98568 20.2852 9.71484 20.5977C10.457 20.8971 11.3164 21.1966 12.293 21.4961C13.8555 21.9648 15.2227 22.4857 16.3945 23.0586C17.5794 23.6315 18.5625 24.2826 19.3438 25.0117C20.138 25.7409 20.7305 26.5612 21.1211 27.4727C21.5247 28.3841 21.7266 29.4193 21.7266 30.5781C21.7266 31.8021 21.4857 32.8958 21.0039 33.8594C20.5221 34.8229 19.832 35.6432 18.9336 36.3203C18.0352 36.9974 16.9544 37.5117 15.6914 37.8633C14.4414 38.2148 13.0417 38.3906 11.4922 38.3906C10.112 38.3906 8.74479 38.2083 7.39062 37.8438C6.04948 37.4661 4.83203 36.9062 3.73828 36.1641C2.64453 35.4089 1.77214 34.4583 1.12109 33.3125C0.470052 32.1536 0.144531 30.7995 0.144531 29.25H5.53516C5.53516 30.1484 5.67839 30.9167 5.96484 31.5547C6.26432 32.1797 6.68099 32.694 7.21484 33.0977C7.76172 33.4883 8.39974 33.7747 9.12891 33.957C9.85807 34.1393 10.6458 34.2305 11.4922 34.2305C12.5859 34.2305 13.4844 34.0807 14.1875 33.7812C14.9036 33.4688 15.4375 33.0391 15.7891 32.4922C16.1536 31.9453 16.3359 31.3203 16.3359 30.6172ZM38.0547 32.9805V16.8672H43.25V38H38.3672L38.0547 32.9805ZM38.7188 28.6055L40.3203 28.5664C40.3203 29.9857 40.1641 31.2943 39.8516 32.4922C39.5391 33.6901 39.0508 34.7318 38.3867 35.6172C37.7357 36.4896 36.9089 37.1732 35.9062 37.668C34.9036 38.1497 33.7188 38.3906 32.3516 38.3906C31.3099 38.3906 30.3594 38.2474 29.5 37.9609C28.6406 37.6615 27.8984 37.1992 27.2734 36.5742C26.6615 35.9362 26.1862 35.1224 25.8477 34.1328C25.5091 33.1302 25.3398 31.9258 25.3398 30.5195V16.8672H30.4961V30.5586C30.4961 31.2617 30.5742 31.8477 30.7305 32.3164C30.8997 32.7852 31.1276 33.1693 31.4141 33.4688C31.7135 33.7552 32.0586 33.9635 32.4492 34.0938C32.8529 34.2109 33.2826 34.2695 33.7383 34.2695C34.9883 34.2695 35.9714 34.0221 36.6875 33.5273C37.4167 33.0195 37.9375 32.3424 38.25 31.4961C38.5625 30.6367 38.7188 29.6732 38.7188 28.6055ZM47.8008 8H52.9766V33.332L52.4688 38H47.8008V8ZM66.5703 27.2188V27.6289C66.5703 29.2044 66.3945 30.6497 66.043 31.9648C65.7044 33.2799 65.1901 34.4193 64.5 35.3828C63.8099 36.3333 62.9505 37.0755 61.9219 37.6094C60.9062 38.1302 59.7148 38.3906 58.3477 38.3906C57.0456 38.3906 55.9128 38.1367 54.9492 37.6289C53.9987 37.1211 53.1979 36.4049 52.5469 35.4805C51.8958 34.543 51.375 33.4427 50.9844 32.1797C50.5938 30.9036 50.3008 29.5104 50.1055 28V26.8867C50.3008 25.3633 50.5938 23.9701 50.9844 22.707C51.375 21.444 51.8958 20.3438 52.5469 19.4062C53.1979 18.4688 53.9987 17.7461 54.9492 17.2383C55.8997 16.7305 57.0195 16.4766 58.3086 16.4766C59.6888 16.4766 60.8932 16.7435 61.9219 17.2773C62.9635 17.7982 63.8229 18.5404 64.5 19.5039C65.1901 20.4544 65.7044 21.5872 66.043 22.9023C66.3945 24.2044 66.5703 25.6432 66.5703 27.2188ZM61.3945 27.6289V27.2188C61.3945 26.3203 61.3229 25.474 61.1797 24.6797C61.0365 23.8724 60.8021 23.1628 60.4766 22.5508C60.151 21.9388 59.7083 21.457 59.1484 21.1055C58.5885 20.7539 57.8854 20.5781 57.0391 20.5781C56.2318 20.5781 55.5417 20.7148 54.9688 20.9883C54.4089 21.2617 53.9401 21.6393 53.5625 22.1211C53.1979 22.6029 52.9115 23.1693 52.7031 23.8203C52.5078 24.4714 52.3776 25.1745 52.3125 25.9297V28.9766C52.4036 29.9792 52.6185 30.8841 52.957 31.6914C53.2956 32.4857 53.7969 33.1172 54.4609 33.5859C55.138 34.0547 56.0104 34.2891 57.0781 34.2891C57.9115 34.2891 58.6081 34.1263 59.168 33.8008C59.7279 33.4622 60.1706 32.9935 60.4961 32.3945C60.8216 31.7826 61.0495 31.0729 61.1797 30.2656C61.3229 29.4583 61.3945 28.5794 61.3945 27.6289ZM81.9414 32.2188C81.9414 31.776 81.8242 31.3789 81.5898 31.0273C81.3555 30.6758 80.9128 30.3568 80.2617 30.0703C79.6237 29.7708 78.6862 29.4909 77.4492 29.2305C76.3555 28.9961 75.3464 28.7031 74.4219 28.3516C73.4974 28 72.7031 27.5768 72.0391 27.082C71.375 26.5742 70.8542 25.9818 70.4766 25.3047C70.112 24.6146 69.9297 23.8203 69.9297 22.9219C69.9297 22.0495 70.1185 21.2292 70.4961 20.4609C70.8737 19.6797 71.4206 18.9961 72.1367 18.4102C72.8529 17.8112 73.7253 17.3424 74.7539 17.0039C75.7826 16.6523 76.9414 16.4766 78.2305 16.4766C80.0273 16.4766 81.5703 16.7695 82.8594 17.3555C84.1615 17.9414 85.1576 18.7487 85.8477 19.7773C86.5378 20.793 86.8828 21.9388 86.8828 23.2148H81.7266C81.7266 22.6549 81.5964 22.1471 81.3359 21.6914C81.0885 21.2357 80.7044 20.8711 80.1836 20.5977C79.6628 20.3112 79.0052 20.168 78.2109 20.168C77.4948 20.168 76.8893 20.2852 76.3945 20.5195C75.9128 20.7539 75.5482 21.0599 75.3008 21.4375C75.0534 21.8151 74.9297 22.2318 74.9297 22.6875C74.9297 23.026 74.9948 23.332 75.125 23.6055C75.2682 23.8659 75.4961 24.1068 75.8086 24.3281C76.1211 24.5495 76.5443 24.7513 77.0781 24.9336C77.625 25.1159 78.2956 25.2917 79.0898 25.4609C80.6654 25.7734 82.0391 26.1901 83.2109 26.7109C84.3958 27.2188 85.3203 27.8958 85.9844 28.7422C86.6484 29.5885 86.9805 30.6693 86.9805 31.9844C86.9805 32.9219 86.7786 33.7812 86.375 34.5625C85.9714 35.3307 85.3854 36.0013 84.6172 36.5742C83.849 37.1471 82.931 37.5964 81.8633 37.9219C80.7956 38.2344 79.5911 38.3906 78.25 38.3906C76.3099 38.3906 74.6693 38.0456 73.3281 37.3555C71.987 36.6523 70.9714 35.7669 70.2812 34.6992C69.5911 33.6185 69.2461 32.4987 69.2461 31.3398H74.1875C74.2266 32.1602 74.4479 32.8177 74.8516 33.3125C75.2552 33.8073 75.763 34.1654 76.375 34.3867C77 34.5951 77.6576 34.6992 78.3477 34.6992C79.1289 34.6992 79.7865 34.5951 80.3203 34.3867C80.8542 34.1654 81.2578 33.8724 81.5312 33.5078C81.8047 33.1302 81.9414 32.7005 81.9414 32.2188ZM99.5781 34.3281C100.307 34.3281 100.958 34.1849 101.531 33.8984C102.104 33.612 102.56 33.2083 102.898 32.6875C103.25 32.1667 103.439 31.5612 103.465 30.8711H108.328C108.302 32.3034 107.898 33.5859 107.117 34.7188C106.336 35.8516 105.294 36.75 103.992 37.4141C102.703 38.0651 101.258 38.3906 99.6562 38.3906C98.0286 38.3906 96.6094 38.1172 95.3984 37.5703C94.1875 37.0234 93.1784 36.2617 92.3711 35.2852C91.5768 34.3086 90.9779 33.1758 90.5742 31.8867C90.1836 30.5977 89.9883 29.2174 89.9883 27.7461V27.1211C89.9883 25.6497 90.1836 24.2695 90.5742 22.9805C90.9779 21.6914 91.5768 20.5586 92.3711 19.582C93.1784 18.6055 94.1875 17.8438 95.3984 17.2969C96.6094 16.75 98.0221 16.4766 99.6367 16.4766C101.342 16.4766 102.84 16.8086 104.129 17.4727C105.431 18.1367 106.447 19.0742 107.176 20.2852C107.918 21.4961 108.302 22.9219 108.328 24.5625H103.465C103.439 23.8073 103.27 23.1302 102.957 22.5312C102.645 21.9323 102.202 21.4505 101.629 21.0859C101.056 20.7214 100.359 20.5391 99.5391 20.5391C98.6667 20.5391 97.9375 20.7214 97.3516 21.0859C96.7786 21.4505 96.3294 21.9518 96.0039 22.5898C95.6914 23.2148 95.4701 23.918 95.3398 24.6992C95.2227 25.4674 95.1641 26.2747 95.1641 27.1211V27.7461C95.1641 28.6055 95.2227 29.4258 95.3398 30.207C95.4701 30.9883 95.6914 31.6914 96.0039 32.3164C96.3294 32.9284 96.7786 33.4167 97.3516 33.7812C97.9375 34.1458 98.6797 34.3281 99.5781 34.3281ZM116.922 21.1836V38H111.766V16.8672H116.648L116.922 21.1836ZM123.348 16.7305L123.27 21.5352C122.983 21.4831 122.658 21.444 122.293 21.418C121.941 21.3919 121.609 21.3789 121.297 21.3789C120.503 21.3789 119.806 21.4896 119.207 21.7109C118.608 21.9193 118.107 22.2253 117.703 22.6289C117.312 23.0326 117.013 23.5273 116.805 24.1133C116.596 24.6862 116.479 25.3372 116.453 26.0664L115.34 25.9297C115.34 24.5885 115.477 23.3451 115.75 22.1992C116.023 21.0534 116.421 20.0508 116.941 19.1914C117.462 18.332 118.113 17.668 118.895 17.1992C119.689 16.7174 120.6 16.4766 121.629 16.4766C121.915 16.4766 122.221 16.5026 122.547 16.5547C122.885 16.5938 123.152 16.6523 123.348 16.7305ZM131.648 16.8672V38H126.473V16.8672H131.648ZM126.121 11.3398C126.121 10.5716 126.382 9.93359 126.902 9.42578C127.436 8.91797 128.152 8.66406 129.051 8.66406C129.949 8.66406 130.659 8.91797 131.18 9.42578C131.714 9.93359 131.98 10.5716 131.98 11.3398C131.98 12.0951 131.714 12.7266 131.18 13.2344C130.659 13.7422 129.949 13.9961 129.051 13.9961C128.152 13.9961 127.436 13.7422 126.902 13.2344C126.382 12.7266 126.121 12.0951 126.121 11.3398ZM141.727 20.9297V46.125H136.551V16.8672H141.336L141.727 20.9297ZM155.301 27.2188V27.6289C155.301 29.1654 155.118 30.5911 154.754 31.9062C154.402 33.2083 153.882 34.3477 153.191 35.3242C152.501 36.2878 151.642 37.043 150.613 37.5898C149.598 38.1237 148.426 38.3906 147.098 38.3906C145.796 38.3906 144.663 38.1432 143.699 37.6484C142.736 37.1406 141.922 36.4245 141.258 35.5C140.594 34.5755 140.06 33.5013 139.656 32.2773C139.266 31.0404 138.973 29.6927 138.777 28.2344V26.9258C138.973 25.3763 139.266 23.9701 139.656 22.707C140.06 21.431 140.594 20.3307 141.258 19.4062C141.922 18.4688 142.729 17.7461 143.68 17.2383C144.643 16.7305 145.77 16.4766 147.059 16.4766C148.4 16.4766 149.578 16.7305 150.594 17.2383C151.622 17.7461 152.488 18.4753 153.191 19.4258C153.895 20.3763 154.422 21.5091 154.773 22.8242C155.125 24.1393 155.301 25.6042 155.301 27.2188ZM150.125 27.6289V27.2188C150.125 26.2812 150.04 25.4154 149.871 24.6211C149.702 23.8138 149.441 23.1107 149.09 22.5117C148.738 21.8997 148.283 21.4245 147.723 21.0859C147.163 20.7474 146.486 20.5781 145.691 20.5781C144.897 20.5781 144.214 20.7083 143.641 20.9688C143.068 21.2292 142.599 21.6003 142.234 22.082C141.87 22.5638 141.583 23.1367 141.375 23.8008C141.18 24.4518 141.049 25.1745 140.984 25.9688V29.2109C141.102 30.1745 141.329 31.0404 141.668 31.8086C142.007 32.5768 142.501 33.1888 143.152 33.6445C143.816 34.1003 144.676 34.3281 145.73 34.3281C146.525 34.3281 147.202 34.1523 147.762 33.8008C148.322 33.4492 148.777 32.9674 149.129 32.3555C149.48 31.7305 149.734 31.0143 149.891 30.207C150.047 29.3997 150.125 28.5404 150.125 27.6289ZM169.07 16.8672V20.5781H156.961V16.8672H169.07ZM160.203 11.6719H165.379V31.9062C165.379 32.5312 165.464 33.013 165.633 33.3516C165.802 33.6901 166.056 33.918 166.395 34.0352C166.733 34.1523 167.137 34.2109 167.605 34.2109C167.944 34.2109 168.257 34.1914 168.543 34.1523C168.829 34.1133 169.07 34.0742 169.266 34.0352L169.285 37.9023C168.855 38.0456 168.367 38.1628 167.82 38.2539C167.286 38.3451 166.681 38.3906 166.004 38.3906C164.845 38.3906 163.829 38.1953 162.957 37.8047C162.085 37.401 161.408 36.7565 160.926 35.8711C160.444 34.9727 160.203 33.7878 160.203 32.3164V11.6719ZM177.977 16.8672V38H172.801V16.8672H177.977ZM172.449 11.3398C172.449 10.5716 172.71 9.93359 173.23 9.42578C173.764 8.91797 174.48 8.66406 175.379 8.66406C176.277 8.66406 176.987 8.91797 177.508 9.42578C178.042 9.93359 178.309 10.5716 178.309 11.3398C178.309 12.0951 178.042 12.7266 177.508 13.2344C176.987 13.7422 176.277 13.9961 175.379 13.9961C174.48 13.9961 173.764 13.7422 173.23 13.2344C172.71 12.7266 172.449 12.0951 172.449 11.3398ZM181.98 27.6484V27.2383C181.98 25.6888 182.202 24.263 182.645 22.9609C183.087 21.6458 183.732 20.5065 184.578 19.543C185.424 18.5794 186.46 17.8307 187.684 17.2969C188.908 16.75 190.301 16.4766 191.863 16.4766C193.452 16.4766 194.858 16.75 196.082 17.2969C197.319 17.8307 198.361 18.5794 199.207 19.543C200.053 20.5065 200.698 21.6458 201.141 22.9609C201.583 24.263 201.805 25.6888 201.805 27.2383V27.6484C201.805 29.1849 201.583 30.6107 201.141 31.9258C200.698 33.2279 200.053 34.3672 199.207 35.3438C198.361 36.3073 197.326 37.056 196.102 37.5898C194.878 38.1237 193.478 38.3906 191.902 38.3906C190.34 38.3906 188.94 38.1237 187.703 37.5898C186.466 37.056 185.424 36.3073 184.578 35.3438C183.732 34.3672 183.087 33.2279 182.645 31.9258C182.202 30.6107 181.98 29.1849 181.98 27.6484ZM187.137 27.2383V27.6484C187.137 28.5729 187.228 29.4388 187.41 30.2461C187.592 31.0534 187.872 31.763 188.25 32.375C188.628 32.987 189.116 33.4688 189.715 33.8203C190.327 34.1589 191.056 34.3281 191.902 34.3281C192.736 34.3281 193.452 34.1589 194.051 33.8203C194.65 33.4688 195.138 32.987 195.516 32.375C195.906 31.763 196.193 31.0534 196.375 30.2461C196.557 29.4388 196.648 28.5729 196.648 27.6484V27.2383C196.648 26.3268 196.557 25.474 196.375 24.6797C196.193 23.8724 195.906 23.1628 195.516 22.5508C195.138 21.9258 194.643 21.4375 194.031 21.0859C193.432 20.7214 192.71 20.5391 191.863 20.5391C191.03 20.5391 190.314 20.7214 189.715 21.0859C189.116 21.4375 188.628 21.9258 188.25 22.5508C187.872 23.1628 187.592 23.8724 187.41 24.6797C187.228 25.474 187.137 26.3268 187.137 27.2383ZM210.613 21.3789V38H205.457V16.8672H210.301L210.613 21.3789ZM209.793 26.6719H208.27C208.283 25.1354 208.491 23.7422 208.895 22.4922C209.298 21.2422 209.865 20.168 210.594 19.2695C211.336 18.3711 212.215 17.681 213.23 17.1992C214.246 16.7174 215.379 16.4766 216.629 16.4766C217.645 16.4766 218.562 16.6198 219.383 16.9062C220.203 17.1927 220.906 17.6484 221.492 18.2734C222.091 18.8984 222.547 19.7188 222.859 20.7344C223.185 21.737 223.348 22.974 223.348 24.4453V38H218.152V24.4062C218.152 23.4427 218.009 22.681 217.723 22.1211C217.449 21.5612 217.046 21.1641 216.512 20.9297C215.991 20.6953 215.346 20.5781 214.578 20.5781C213.784 20.5781 213.087 20.7409 212.488 21.0664C211.902 21.3789 211.408 21.8151 211.004 22.375C210.613 22.9349 210.314 23.5794 210.105 24.3086C209.897 25.0378 209.793 25.8255 209.793 26.6719ZM253.133 30.6172C253.133 30.0703 253.048 29.582 252.879 29.1523C252.723 28.7096 252.43 28.3125 252 27.9609C251.583 27.5964 250.991 27.2448 250.223 26.9062C249.467 26.5547 248.491 26.1901 247.293 25.8125C245.965 25.3958 244.728 24.9271 243.582 24.4062C242.436 23.8854 241.427 23.2799 240.555 22.5898C239.695 21.8997 239.025 21.1055 238.543 20.207C238.061 19.2956 237.82 18.2409 237.82 17.043C237.82 15.8711 238.068 14.8034 238.562 13.8398C239.07 12.8763 239.786 12.0495 240.711 11.3594C241.635 10.6562 242.723 10.1159 243.973 9.73828C245.236 9.36068 246.629 9.17188 248.152 9.17188C250.262 9.17188 252.085 9.55599 253.621 10.3242C255.171 11.0924 256.368 12.1341 257.215 13.4492C258.061 14.7643 258.484 16.2422 258.484 17.8828H253.133C253.133 16.9974 252.944 16.2161 252.566 15.5391C252.202 14.862 251.642 14.3281 250.887 13.9375C250.145 13.5469 249.207 13.3516 248.074 13.3516C246.98 13.3516 246.069 13.5143 245.34 13.8398C244.624 14.1654 244.083 14.6081 243.719 15.168C243.367 15.7279 243.191 16.3529 243.191 17.043C243.191 17.5638 243.315 18.0326 243.562 18.4492C243.81 18.8529 244.181 19.237 244.676 19.6016C245.171 19.9531 245.783 20.2852 246.512 20.5977C247.254 20.8971 248.113 21.1966 249.09 21.4961C250.652 21.9648 252.02 22.4857 253.191 23.0586C254.376 23.6315 255.359 24.2826 256.141 25.0117C256.935 25.7409 257.527 26.5612 257.918 27.4727C258.322 28.3841 258.523 29.4193 258.523 30.5781C258.523 31.8021 258.283 32.8958 257.801 33.8594C257.319 34.8229 256.629 35.6432 255.73 36.3203C254.832 36.9974 253.751 37.5117 252.488 37.8633C251.238 38.2148 249.839 38.3906 248.289 38.3906C246.909 38.3906 245.542 38.2083 244.188 37.8438C242.846 37.4661 241.629 36.9062 240.535 36.1641C239.441 35.4089 238.569 34.4583 237.918 33.3125C237.267 32.1536 236.941 30.7995 236.941 29.25H242.332C242.332 30.1484 242.475 30.9167 242.762 31.5547C243.061 32.1797 243.478 32.694 244.012 33.0977C244.559 33.4883 245.197 33.7747 245.926 33.957C246.655 34.1393 247.443 34.2305 248.289 34.2305C249.383 34.2305 250.281 34.0807 250.984 33.7812C251.701 33.4688 252.234 33.0391 252.586 32.4922C252.951 31.9453 253.133 31.3203 253.133 30.6172ZM274.852 32.9805V16.8672H280.047V38H275.164L274.852 32.9805ZM275.516 28.6055L277.117 28.5664C277.117 29.9857 276.961 31.2943 276.648 32.4922C276.336 33.6901 275.848 34.7318 275.184 35.6172C274.533 36.4896 273.706 37.1732 272.703 37.668C271.701 38.1497 270.516 38.3906 269.148 38.3906C268.107 38.3906 267.156 38.2474 266.297 37.9609C265.438 37.6615 264.695 37.1992 264.07 36.5742C263.458 35.9362 262.983 35.1224 262.645 34.1328C262.306 33.1302 262.137 31.9258 262.137 30.5195V16.8672H267.293V30.5586C267.293 31.2617 267.371 31.8477 267.527 32.3164C267.697 32.7852 267.924 33.1693 268.211 33.4688C268.51 33.7552 268.855 33.9635 269.246 34.0938C269.65 34.2109 270.079 34.2695 270.535 34.2695C271.785 34.2695 272.768 34.0221 273.484 33.5273C274.214 33.0195 274.734 32.3424 275.047 31.4961C275.359 30.6367 275.516 29.6732 275.516 28.6055ZM293.289 34.3281C294.018 34.3281 294.669 34.1849 295.242 33.8984C295.815 33.612 296.271 33.2083 296.609 32.6875C296.961 32.1667 297.15 31.5612 297.176 30.8711H302.039C302.013 32.3034 301.609 33.5859 300.828 34.7188C300.047 35.8516 299.005 36.75 297.703 37.4141C296.414 38.0651 294.969 38.3906 293.367 38.3906C291.74 38.3906 290.32 38.1172 289.109 37.5703C287.898 37.0234 286.889 36.2617 286.082 35.2852C285.288 34.3086 284.689 33.1758 284.285 31.8867C283.895 30.5977 283.699 29.2174 283.699 27.7461V27.1211C283.699 25.6497 283.895 24.2695 284.285 22.9805C284.689 21.6914 285.288 20.5586 286.082 19.582C286.889 18.6055 287.898 17.8438 289.109 17.2969C290.32 16.75 291.733 16.4766 293.348 16.4766C295.053 16.4766 296.551 16.8086 297.84 17.4727C299.142 18.1367 300.158 19.0742 300.887 20.2852C301.629 21.4961 302.013 22.9219 302.039 24.5625H297.176C297.15 23.8073 296.98 23.1302 296.668 22.5312C296.355 21.9323 295.913 21.4505 295.34 21.0859C294.767 20.7214 294.07 20.5391 293.25 20.5391C292.378 20.5391 291.648 20.7214 291.062 21.0859C290.49 21.4505 290.04 21.9518 289.715 22.5898C289.402 23.2148 289.181 23.918 289.051 24.6992C288.934 25.4674 288.875 26.2747 288.875 27.1211V27.7461C288.875 28.6055 288.934 29.4258 289.051 30.207C289.181 30.9883 289.402 31.6914 289.715 32.3164C290.04 32.9284 290.49 33.4167 291.062 33.7812C291.648 34.1458 292.391 34.3281 293.289 34.3281ZM314.148 34.3281C314.878 34.3281 315.529 34.1849 316.102 33.8984C316.674 33.612 317.13 33.2083 317.469 32.6875C317.82 32.1667 318.009 31.5612 318.035 30.8711H322.898C322.872 32.3034 322.469 33.5859 321.688 34.7188C320.906 35.8516 319.865 36.75 318.562 37.4141C317.273 38.0651 315.828 38.3906 314.227 38.3906C312.599 38.3906 311.18 38.1172 309.969 37.5703C308.758 37.0234 307.749 36.2617 306.941 35.2852C306.147 34.3086 305.548 33.1758 305.145 31.8867C304.754 30.5977 304.559 29.2174 304.559 27.7461V27.1211C304.559 25.6497 304.754 24.2695 305.145 22.9805C305.548 21.6914 306.147 20.5586 306.941 19.582C307.749 18.6055 308.758 17.8438 309.969 17.2969C311.18 16.75 312.592 16.4766 314.207 16.4766C315.913 16.4766 317.41 16.8086 318.699 17.4727C320.001 18.1367 321.017 19.0742 321.746 20.2852C322.488 21.4961 322.872 22.9219 322.898 24.5625H318.035C318.009 23.8073 317.84 23.1302 317.527 22.5312C317.215 21.9323 316.772 21.4505 316.199 21.0859C315.626 20.7214 314.93 20.5391 314.109 20.5391C313.237 20.5391 312.508 20.7214 311.922 21.0859C311.349 21.4505 310.9 21.9518 310.574 22.5898C310.262 23.2148 310.04 23.918 309.91 24.6992C309.793 25.4674 309.734 26.2747 309.734 27.1211V27.7461C309.734 28.6055 309.793 29.4258 309.91 30.207C310.04 30.9883 310.262 31.6914 310.574 32.3164C310.9 32.9284 311.349 33.4167 311.922 33.7812C312.508 34.1458 313.25 34.3281 314.148 34.3281ZM335.828 38.3906C334.227 38.3906 332.788 38.1302 331.512 37.6094C330.236 37.0885 329.148 36.3659 328.25 35.4414C327.365 34.5039 326.681 33.4167 326.199 32.1797C325.73 30.9297 325.496 29.5885 325.496 28.1562V27.375C325.496 25.7474 325.73 24.2695 326.199 22.9414C326.668 21.6003 327.332 20.4479 328.191 19.4844C329.051 18.5208 330.079 17.7786 331.277 17.2578C332.475 16.737 333.797 16.4766 335.242 16.4766C336.74 16.4766 338.061 16.7305 339.207 17.2383C340.353 17.7331 341.31 18.4362 342.078 19.3477C342.846 20.2591 343.426 21.3529 343.816 22.6289C344.207 23.8919 344.402 25.2917 344.402 26.8281V28.9961H327.84V25.4414H339.324V25.0508C339.298 24.2305 339.142 23.4818 338.855 22.8047C338.569 22.1146 338.126 21.5677 337.527 21.1641C336.928 20.7474 336.154 20.5391 335.203 20.5391C334.435 20.5391 333.764 20.7083 333.191 21.0469C332.632 21.3724 332.163 21.8411 331.785 22.4531C331.421 23.0521 331.147 23.7682 330.965 24.6016C330.783 25.4349 330.691 26.3594 330.691 27.375V28.1562C330.691 29.0417 330.809 29.862 331.043 30.6172C331.29 31.3724 331.648 32.0299 332.117 32.5898C332.599 33.1367 333.172 33.5664 333.836 33.8789C334.513 34.1784 335.281 34.3281 336.141 34.3281C337.221 34.3281 338.198 34.1198 339.07 33.7031C339.956 33.2734 340.724 32.6419 341.375 31.8086L343.973 34.5039C343.53 35.1549 342.931 35.7799 342.176 36.3789C341.434 36.9779 340.535 37.4661 339.48 37.8438C338.426 38.2083 337.208 38.3906 335.828 38.3906ZM359.48 32.2188C359.48 31.776 359.363 31.3789 359.129 31.0273C358.895 30.6758 358.452 30.3568 357.801 30.0703C357.163 29.7708 356.225 29.4909 354.988 29.2305C353.895 28.9961 352.885 28.7031 351.961 28.3516C351.036 28 350.242 27.5768 349.578 27.082C348.914 26.5742 348.393 25.9818 348.016 25.3047C347.651 24.6146 347.469 23.8203 347.469 22.9219C347.469 22.0495 347.658 21.2292 348.035 20.4609C348.413 19.6797 348.96 18.9961 349.676 18.4102C350.392 17.8112 351.264 17.3424 352.293 17.0039C353.322 16.6523 354.48 16.4766 355.77 16.4766C357.566 16.4766 359.109 16.7695 360.398 17.3555C361.701 17.9414 362.697 18.7487 363.387 19.7773C364.077 20.793 364.422 21.9388 364.422 23.2148H359.266C359.266 22.6549 359.135 22.1471 358.875 21.6914C358.628 21.2357 358.243 20.8711 357.723 20.5977C357.202 20.3112 356.544 20.168 355.75 20.168C355.034 20.168 354.428 20.2852 353.934 20.5195C353.452 20.7539 353.087 21.0599 352.84 21.4375C352.592 21.8151 352.469 22.2318 352.469 22.6875C352.469 23.026 352.534 23.332 352.664 23.6055C352.807 23.8659 353.035 24.1068 353.348 24.3281C353.66 24.5495 354.083 24.7513 354.617 24.9336C355.164 25.1159 355.835 25.2917 356.629 25.4609C358.204 25.7734 359.578 26.1901 360.75 26.7109C361.935 27.2188 362.859 27.8958 363.523 28.7422C364.188 29.5885 364.52 30.6693 364.52 31.9844C364.52 32.9219 364.318 33.7812 363.914 34.5625C363.51 35.3307 362.924 36.0013 362.156 36.5742C361.388 37.1471 360.47 37.5964 359.402 37.9219C358.335 38.2344 357.13 38.3906 355.789 38.3906C353.849 38.3906 352.208 38.0456 350.867 37.3555C349.526 36.6523 348.51 35.7669 347.82 34.6992C347.13 33.6185 346.785 32.4987 346.785 31.3398H351.727C351.766 32.1602 351.987 32.8177 352.391 33.3125C352.794 33.8073 353.302 34.1654 353.914 34.3867C354.539 34.5951 355.197 34.6992 355.887 34.6992C356.668 34.6992 357.326 34.5951 357.859 34.3867C358.393 34.1654 358.797 33.8724 359.07 33.5078C359.344 33.1302 359.48 32.7005 359.48 32.2188ZM380.066 32.2188C380.066 31.776 379.949 31.3789 379.715 31.0273C379.48 30.6758 379.038 30.3568 378.387 30.0703C377.749 29.7708 376.811 29.4909 375.574 29.2305C374.48 28.9961 373.471 28.7031 372.547 28.3516C371.622 28 370.828 27.5768 370.164 27.082C369.5 26.5742 368.979 25.9818 368.602 25.3047C368.237 24.6146 368.055 23.8203 368.055 22.9219C368.055 22.0495 368.243 21.2292 368.621 20.4609C368.999 19.6797 369.546 18.9961 370.262 18.4102C370.978 17.8112 371.85 17.3424 372.879 17.0039C373.908 16.6523 375.066 16.4766 376.355 16.4766C378.152 16.4766 379.695 16.7695 380.984 17.3555C382.286 17.9414 383.283 18.7487 383.973 19.7773C384.663 20.793 385.008 21.9388 385.008 23.2148H379.852C379.852 22.6549 379.721 22.1471 379.461 21.6914C379.214 21.2357 378.829 20.8711 378.309 20.5977C377.788 20.3112 377.13 20.168 376.336 20.168C375.62 20.168 375.014 20.2852 374.52 20.5195C374.038 20.7539 373.673 21.0599 373.426 21.4375C373.178 21.8151 373.055 22.2318 373.055 22.6875C373.055 23.026 373.12 23.332 373.25 23.6055C373.393 23.8659 373.621 24.1068 373.934 24.3281C374.246 24.5495 374.669 24.7513 375.203 24.9336C375.75 25.1159 376.421 25.2917 377.215 25.4609C378.79 25.7734 380.164 26.1901 381.336 26.7109C382.521 27.2188 383.445 27.8958 384.109 28.7422C384.773 29.5885 385.105 30.6693 385.105 31.9844C385.105 32.9219 384.904 33.7812 384.5 34.5625C384.096 35.3307 383.51 36.0013 382.742 36.5742C381.974 37.1471 381.056 37.5964 379.988 37.9219C378.921 38.2344 377.716 38.3906 376.375 38.3906C374.435 38.3906 372.794 38.0456 371.453 37.3555C370.112 36.6523 369.096 35.7669 368.406 34.6992C367.716 33.6185 367.371 32.4987 367.371 31.3398H372.312C372.352 32.1602 372.573 32.8177 372.977 33.3125C373.38 33.8073 373.888 34.1654 374.5 34.3867C375.125 34.5951 375.783 34.6992 376.473 34.6992C377.254 34.6992 377.911 34.5951 378.445 34.3867C378.979 34.1654 379.383 33.8724 379.656 33.5078C379.93 33.1302 380.066 32.7005 380.066 32.2188ZM395.789 38H390.594V14.9141C390.594 13.3255 390.9 11.9909 391.512 10.9102C392.124 9.81641 392.996 8.98958 394.129 8.42969C395.262 7.86979 396.596 7.58984 398.133 7.58984C398.641 7.58984 399.122 7.6224 399.578 7.6875C400.047 7.7526 400.509 7.84375 400.965 7.96094L400.867 11.8867C400.62 11.8216 400.346 11.776 400.047 11.75C399.76 11.724 399.441 11.7109 399.09 11.7109C398.387 11.7109 397.788 11.8346 397.293 12.082C396.798 12.3294 396.421 12.694 396.16 13.1758C395.913 13.6445 395.789 14.224 395.789 14.9141V38ZM400.066 16.8672V20.5781H387.41V16.8672H400.066ZM415.828 32.9805V16.8672H421.023V38H416.141L415.828 32.9805ZM416.492 28.6055L418.094 28.5664C418.094 29.9857 417.938 31.2943 417.625 32.4922C417.312 33.6901 416.824 34.7318 416.16 35.6172C415.509 36.4896 414.682 37.1732 413.68 37.668C412.677 38.1497 411.492 38.3906 410.125 38.3906C409.083 38.3906 408.133 38.2474 407.273 37.9609C406.414 37.6615 405.672 37.1992 405.047 36.5742C404.435 35.9362 403.96 35.1224 403.621 34.1328C403.283 33.1302 403.113 31.9258 403.113 30.5195V16.8672H408.27V30.5586C408.27 31.2617 408.348 31.8477 408.504 32.3164C408.673 32.7852 408.901 33.1693 409.188 33.4688C409.487 33.7552 409.832 33.9635 410.223 34.0938C410.626 34.2109 411.056 34.2695 411.512 34.2695C412.762 34.2695 413.745 34.0221 414.461 33.5273C415.19 33.0195 415.711 32.3424 416.023 31.4961C416.336 30.6367 416.492 29.6732 416.492 28.6055ZM431.062 8V38H425.887V8H431.062ZM441.453 8V38H436.277V8H441.453ZM452.566 35.6562L458.23 16.8672H463.758L455.281 41.2031C455.086 41.724 454.832 42.2904 454.52 42.9023C454.22 43.5143 453.816 44.0938 453.309 44.6406C452.801 45.2005 452.163 45.6562 451.395 46.0078C450.639 46.3594 449.721 46.5352 448.641 46.5352C448.172 46.5352 447.755 46.5026 447.391 46.4375C447.026 46.3724 446.642 46.2878 446.238 46.1836V42.3164C446.368 42.3294 446.518 42.3359 446.688 42.3359C446.87 42.349 447.026 42.3555 447.156 42.3555C447.911 42.3555 448.536 42.2643 449.031 42.082C449.526 41.9128 449.923 41.6328 450.223 41.2422C450.535 40.8646 450.796 40.3698 451.004 39.7578L452.566 35.6562ZM449.773 16.8672L454.559 32.4336L455.398 37.8828L451.844 38.5273L444.207 16.8672H449.773ZM493.25 28.6445H498.621C498.478 30.5456 497.951 32.2318 497.039 33.7031C496.128 35.1615 494.858 36.3073 493.23 37.1406C491.603 37.974 489.63 38.3906 487.312 38.3906C485.529 38.3906 483.921 38.0781 482.488 37.4531C481.069 36.8151 479.852 35.9102 478.836 34.7383C477.833 33.5534 477.065 32.1341 476.531 30.4805C475.997 28.8138 475.73 26.9453 475.73 24.875V22.707C475.73 20.6367 476.004 18.7682 476.551 17.1016C477.098 15.4349 477.879 14.0156 478.895 12.8438C479.923 11.6589 481.154 10.7474 482.586 10.1094C484.031 9.47135 485.646 9.15234 487.43 9.15234C489.747 9.15234 491.707 9.58203 493.309 10.4414C494.91 11.2878 496.154 12.4531 497.039 13.9375C497.924 15.4219 498.458 17.1276 498.641 19.0547H493.27C493.165 17.8568 492.905 16.8411 492.488 16.0078C492.085 15.1745 491.473 14.543 490.652 14.1133C489.845 13.6706 488.771 13.4492 487.43 13.4492C486.388 13.4492 485.47 13.6445 484.676 14.0352C483.895 14.4258 483.243 15.0117 482.723 15.793C482.202 16.5612 481.811 17.5247 481.551 18.6836C481.29 19.8294 481.16 21.1576 481.16 22.668V24.875C481.16 26.3203 481.277 27.6159 481.512 28.7617C481.746 29.9076 482.111 30.8776 482.605 31.6719C483.1 32.4661 483.738 33.0716 484.52 33.4883C485.301 33.9049 486.232 34.1133 487.312 34.1133C488.628 34.1133 489.695 33.9049 490.516 33.4883C491.349 33.0716 491.98 32.4596 492.41 31.6523C492.853 30.8451 493.133 29.8424 493.25 28.6445ZM507.547 21.1836V38H502.391V16.8672H507.273L507.547 21.1836ZM513.973 16.7305L513.895 21.5352C513.608 21.4831 513.283 21.444 512.918 21.418C512.566 21.3919 512.234 21.3789 511.922 21.3789C511.128 21.3789 510.431 21.4896 509.832 21.7109C509.233 21.9193 508.732 22.2253 508.328 22.6289C507.938 23.0326 507.638 23.5273 507.43 24.1133C507.221 24.6862 507.104 25.3372 507.078 26.0664L505.965 25.9297C505.965 24.5885 506.102 23.3451 506.375 22.1992C506.648 21.0534 507.046 20.0508 507.566 19.1914C508.087 18.332 508.738 17.668 509.52 17.1992C510.314 16.7174 511.225 16.4766 512.254 16.4766C512.54 16.4766 512.846 16.5026 513.172 16.5547C513.51 16.5938 513.777 16.6523 513.973 16.7305ZM525.906 38.3906C524.305 38.3906 522.866 38.1302 521.59 37.6094C520.314 37.0885 519.227 36.3659 518.328 35.4414C517.443 34.5039 516.759 33.4167 516.277 32.1797C515.809 30.9297 515.574 29.5885 515.574 28.1562V27.375C515.574 25.7474 515.809 24.2695 516.277 22.9414C516.746 21.6003 517.41 20.4479 518.27 19.4844C519.129 18.5208 520.158 17.7786 521.355 17.2578C522.553 16.737 523.875 16.4766 525.32 16.4766C526.818 16.4766 528.139 16.7305 529.285 17.2383C530.431 17.7331 531.388 18.4362 532.156 19.3477C532.924 20.2591 533.504 21.3529 533.895 22.6289C534.285 23.8919 534.48 25.2917 534.48 26.8281V28.9961H517.918V25.4414H529.402V25.0508C529.376 24.2305 529.22 23.4818 528.934 22.8047C528.647 22.1146 528.204 21.5677 527.605 21.1641C527.007 20.7474 526.232 20.5391 525.281 20.5391C524.513 20.5391 523.842 20.7083 523.27 21.0469C522.71 21.3724 522.241 21.8411 521.863 22.4531C521.499 23.0521 521.225 23.7682 521.043 24.6016C520.861 25.4349 520.77 26.3594 520.77 27.375V28.1562C520.77 29.0417 520.887 29.862 521.121 30.6172C521.368 31.3724 521.727 32.0299 522.195 32.5898C522.677 33.1367 523.25 33.5664 523.914 33.8789C524.591 34.1784 525.359 34.3281 526.219 34.3281C527.299 34.3281 528.276 34.1198 529.148 33.7031C530.034 33.2734 530.802 32.6419 531.453 31.8086L534.051 34.5039C533.608 35.1549 533.009 35.7799 532.254 36.3789C531.512 36.9779 530.613 37.4661 529.559 37.8438C528.504 38.2083 527.286 38.3906 525.906 38.3906ZM549.578 33.5078V23.7617C549.578 23.0456 549.454 22.4271 549.207 21.9062C548.96 21.3854 548.582 20.9818 548.074 20.6953C547.566 20.4089 546.922 20.2656 546.141 20.2656C545.451 20.2656 544.845 20.3828 544.324 20.6172C543.816 20.8516 543.426 21.1836 543.152 21.6133C542.879 22.0299 542.742 22.5117 542.742 23.0586H537.566C537.566 22.1862 537.775 21.3594 538.191 20.5781C538.608 19.7839 539.201 19.0807 539.969 18.4688C540.75 17.8438 541.681 17.3555 542.762 17.0039C543.855 16.6523 545.079 16.4766 546.434 16.4766C548.035 16.4766 549.461 16.75 550.711 17.2969C551.974 17.8307 552.964 18.638 553.68 19.7188C554.409 20.7995 554.773 22.1602 554.773 23.8008V33.0195C554.773 34.0742 554.839 34.9792 554.969 35.7344C555.112 36.4766 555.32 37.1211 555.594 37.668V38H550.34C550.092 37.4661 549.904 36.7891 549.773 35.9688C549.643 35.1354 549.578 34.3151 549.578 33.5078ZM550.301 25.1289L550.34 28.1953H547.078C546.271 28.1953 545.561 28.2799 544.949 28.4492C544.337 28.6055 543.836 28.8398 543.445 29.1523C543.055 29.4518 542.762 29.8164 542.566 30.2461C542.371 30.6628 542.273 31.138 542.273 31.6719C542.273 32.1927 542.391 32.6615 542.625 33.0781C542.872 33.4948 543.224 33.8268 543.68 34.0742C544.148 34.3086 544.695 34.4258 545.32 34.4258C546.232 34.4258 547.026 34.2435 547.703 33.8789C548.38 33.5013 548.908 33.0456 549.285 32.5117C549.663 31.9779 549.865 31.4701 549.891 30.9883L551.375 33.2148C551.193 33.7487 550.919 34.3151 550.555 34.9141C550.19 35.513 549.721 36.0729 549.148 36.5938C548.576 37.1146 547.885 37.5443 547.078 37.8828C546.271 38.2214 545.333 38.3906 544.266 38.3906C542.898 38.3906 541.674 38.1172 540.594 37.5703C539.513 37.0234 538.66 36.2747 538.035 35.3242C537.41 34.3737 537.098 33.293 537.098 32.082C537.098 30.9622 537.306 29.9727 537.723 29.1133C538.139 28.2539 538.758 27.5312 539.578 26.9453C540.398 26.3464 541.414 25.8971 542.625 25.5977C543.849 25.2852 545.249 25.1289 546.824 25.1289H550.301ZM569.422 16.8672V20.5781H557.312V16.8672H569.422ZM560.555 11.6719H565.73V31.9062C565.73 32.5312 565.815 33.013 565.984 33.3516C566.154 33.6901 566.408 33.918 566.746 34.0352C567.085 34.1523 567.488 34.2109 567.957 34.2109C568.296 34.2109 568.608 34.1914 568.895 34.1523C569.181 34.1133 569.422 34.0742 569.617 34.0352L569.637 37.9023C569.207 38.0456 568.719 38.1628 568.172 38.2539C567.638 38.3451 567.033 38.3906 566.355 38.3906C565.197 38.3906 564.181 38.1953 563.309 37.8047C562.436 37.401 561.759 36.7565 561.277 35.8711C560.796 34.9727 560.555 33.7878 560.555 32.3164V11.6719ZM582.352 38.3906C580.75 38.3906 579.311 38.1302 578.035 37.6094C576.759 37.0885 575.672 36.3659 574.773 35.4414C573.888 34.5039 573.204 33.4167 572.723 32.1797C572.254 30.9297 572.02 29.5885 572.02 28.1562V27.375C572.02 25.7474 572.254 24.2695 572.723 22.9414C573.191 21.6003 573.855 20.4479 574.715 19.4844C575.574 18.5208 576.603 17.7786 577.801 17.2578C578.999 16.737 580.32 16.4766 581.766 16.4766C583.263 16.4766 584.585 16.7305 585.73 17.2383C586.876 17.7331 587.833 18.4362 588.602 19.3477C589.37 20.2591 589.949 21.3529 590.34 22.6289C590.73 23.8919 590.926 25.2917 590.926 26.8281V28.9961H574.363V25.4414H585.848V25.0508C585.822 24.2305 585.665 23.4818 585.379 22.8047C585.092 22.1146 584.65 21.5677 584.051 21.1641C583.452 20.7474 582.677 20.5391 581.727 20.5391C580.958 20.5391 580.288 20.7083 579.715 21.0469C579.155 21.3724 578.686 21.8411 578.309 22.4531C577.944 23.0521 577.671 23.7682 577.488 24.6016C577.306 25.4349 577.215 26.3594 577.215 27.375V28.1562C577.215 29.0417 577.332 29.862 577.566 30.6172C577.814 31.3724 578.172 32.0299 578.641 32.5898C579.122 33.1367 579.695 33.5664 580.359 33.8789C581.036 34.1784 581.805 34.3281 582.664 34.3281C583.745 34.3281 584.721 34.1198 585.594 33.7031C586.479 33.2734 587.247 32.6419 587.898 31.8086L590.496 34.5039C590.053 35.1549 589.454 35.7799 588.699 36.3789C587.957 36.9779 587.059 37.4661 586.004 37.8438C584.949 38.2083 583.732 38.3906 582.352 38.3906ZM607.059 33.5078V8H612.254V38H607.566L607.059 33.5078ZM593.484 27.6875V27.2773C593.484 25.6628 593.667 24.1979 594.031 22.8828C594.409 21.5547 594.956 20.4154 595.672 19.4648C596.388 18.5143 597.254 17.7786 598.27 17.2578C599.298 16.737 600.464 16.4766 601.766 16.4766C603.029 16.4766 604.129 16.7305 605.066 17.2383C606.017 17.7461 606.824 18.4688 607.488 19.4062C608.165 20.3438 608.706 21.457 609.109 22.7461C609.513 24.0221 609.806 25.4284 609.988 26.9648V28.0781C609.806 29.5755 609.513 30.9492 609.109 32.1992C608.706 33.4492 608.165 34.543 607.488 35.4805C606.824 36.4049 606.017 37.1211 605.066 37.6289C604.116 38.1367 603.003 38.3906 601.727 38.3906C600.438 38.3906 599.279 38.1237 598.25 37.5898C597.234 37.056 596.368 36.3073 595.652 35.3438C594.949 34.3802 594.409 33.2474 594.031 31.9453C593.667 30.6432 593.484 29.224 593.484 27.6875ZM598.66 27.2773V27.6875C598.66 28.599 598.738 29.4518 598.895 30.2461C599.051 31.0404 599.305 31.7435 599.656 32.3555C600.008 32.9544 600.457 33.4232 601.004 33.7617C601.564 34.1003 602.241 34.2695 603.035 34.2695C604.051 34.2695 604.884 34.0482 605.535 33.6055C606.199 33.1497 606.714 32.5312 607.078 31.75C607.443 30.9557 607.677 30.0638 607.781 29.0742V26.0078C607.729 25.2266 607.592 24.5039 607.371 23.8398C607.163 23.1758 606.863 22.6029 606.473 22.1211C606.095 21.6393 605.626 21.2617 605.066 20.9883C604.507 20.7148 603.842 20.5781 603.074 20.5781C602.28 20.5781 601.603 20.7539 601.043 21.1055C600.483 21.444 600.027 21.9193 599.676 22.5312C599.324 23.1432 599.064 23.8529 598.895 24.6602C598.738 25.4674 598.66 26.3398 598.66 27.2773ZM622.801 9.5625L622.234 29.4648H617.879L617.312 9.5625H622.801ZM617.156 35.5977C617.156 34.8294 617.417 34.1849 617.938 33.6641C618.471 33.1302 619.188 32.8633 620.086 32.8633C620.984 32.8633 621.694 33.1302 622.215 33.6641C622.749 34.1849 623.016 34.8294 623.016 35.5977C623.016 36.3529 622.749 36.9909 622.215 37.5117C621.694 38.0326 620.984 38.293 620.086 38.293C619.188 38.293 618.471 38.0326 617.938 37.5117C617.417 36.9909 617.156 36.3529 617.156 35.5977ZM635.262 40.8H675.262V0.8H635.262V40.8Z" fill="#29292A"/>
</svg>
